<svg width="19" height="19" viewBox="0 0 19 19" fill="none" xmlns="http://www.w3.org/2000/svg">
<path fill-rule="evenodd" clip-rule="evenodd" d="M11.875 5.9375C11.875 7.24918 10.8117 8.3125 9.5 8.3125C8.18832 8.3125 7.125 7.24918 7.125 5.9375C7.125 4.62582 8.18832 3.5625 9.5 3.5625C10.8117 3.5625 11.875 4.62582 11.875 5.9375ZM9.5 9.5C11.4675 9.5 13.0625 7.90501 13.0625 5.9375C13.0625 3.96999 11.4675 2.375 9.5 2.375C7.53249 2.375 5.9375 3.96999 5.9375 5.9375C5.9375 7.90501 7.53249 9.5 9.5 9.5ZM16.625 15.4375C16.625 16.625 15.4375 16.625 15.4375 16.625H3.5625C3.5625 16.625 2.375 16.625 2.375 15.4375C2.375 14.25 3.5625 10.6875 9.5 10.6875C15.4375 10.6875 16.625 14.25 16.625 15.4375ZM15.4375 15.4334C15.4358 15.1403 15.2549 14.2624 14.4494 13.4569C13.6748 12.6823 12.2183 11.875 9.49999 11.875C6.78167 11.875 5.32517 12.6823 4.55061 13.4569C3.74508 14.2624 3.56419 15.1403 3.5625 15.4334H15.4375Z" fill="#D8B192"/>
</svg>
